<?xml version="1.0" encoding="UTF-8"?>
<!--
  Shot 3 - Wallet Dashboard with "Stake more" action highlighted.
  Behind narration: "From the dashboard, click Stake more."
-->
<svg xmlns="http://www.w3.org/2000/svg" viewBox="0 0 1920 1080" width="1920" height="1080">
  <rect width="1920" height="1080" fill="#08080C"/>

  <!-- Sidebar (faded) -->
  <rect x="0" y="0" width="260" height="1080" fill="#12121A" opacity="0.6"/>
  <g opacity="0.4">
    <text x="50" y="60" font-family="'Inter', sans-serif" font-weight="800" font-size="18" fill="#E6007A">POLKADEX</text>
    <rect x="16" y="426" width="228" height="40" rx="6" fill="rgba(230,0,122,0.12)"/>
    <text x="40" y="452" font-family="'Inter', sans-serif" font-size="15" fill="#E6007A" font-weight="700">My Account</text>
  </g>

  <!-- Topbar -->
  <rect x="260" y="0" width="1660" height="68" fill="#12121A"/>

  <g transform="translate(300, 110)">
    <text x="0" y="0" font-family="'Inter', sans-serif" font-size="13" letter-spacing="3" fill="#9CA3AF">WALLET DASHBOARD</text>
    <text x="0" y="50" font-family="'Inter', sans-serif" font-size="36" font-weight="800" fill="#FFFFFF">Validator 8</text>
    <text x="0" y="84" font-family="'Courier New', monospace" font-size="14" fill="#9CA3AF">e8ab9d4fJpX7nVeMcRtY3qC2…</text>

    <!-- Stat cards -->
    <g transform="translate(0, 130)">
      <rect x="0" y="0" width="370" height="120" rx="12" fill="#12121A" stroke="rgba(255,255,255,0.06)"/>
      <text x="20" y="36" font-family="'Inter', sans-serif" font-size="13" fill="#9CA3AF">Total balance</text>
      <text x="20" y="80" font-family="'Inter', sans-serif" font-size="28" font-weight="800" fill="#FFFFFF">1,250.0000 PDEX</text>

      <g transform="translate(390, 0)">
        <rect x="0" y="0" width="370" height="120" rx="12" fill="#12121A" stroke="rgba(255,255,255,0.06)"/>
        <text x="20" y="36" font-family="'Inter', sans-serif" font-size="13" fill="#9CA3AF">Total staked</text>
        <text x="20" y="80" font-family="'Inter', sans-serif" font-size="28" font-weight="800" fill="#E6007A">820.0000 PDEX</text>
      </g>

      <g transform="translate(780, 0)">
        <rect x="0" y="0" width="370" height="120" rx="12" fill="#12121A" stroke="rgba(255,255,255,0.06)"/>
        <text x="20" y="36" font-family="'Inter', sans-serif" font-size="13" fill="#9CA3AF">Claimed rewards</text>
        <text x="20" y="80" font-family="'Inter', sans-serif" font-size="28" font-weight="800" fill="#00E676">42.7185 PDEX</text>
      </g>

      <g transform="translate(1170, 0)">
        <rect x="0" y="0" width="370" height="120" rx="12" fill="#12121A" stroke="rgba(255,255,255,0.06)"/>
        <text x="20" y="36" font-family="'Inter', sans-serif" font-size="13" fill="#9CA3AF">Unpaid rewards</text>
        <text x="20" y="80" font-family="'Inter', sans-serif" font-size="28" font-weight="800" fill="#FFFFFF">3.2104 PDEX</text>
      </g>
    </g>

    <!-- Action bar - 4 buttons; "Stake more" is highlighted -->
    <g transform="translate(0, 280)">
      <rect x="0" y="0" width="1540" height="92" rx="12" fill="#12121A" stroke="rgba(255,255,255,0.06)"/>
      <text x="20" y="36" font-family="'Inter', sans-serif" font-size="13" letter-spacing="3" fill="#9CA3AF">ACTIONS</text>

      <!-- Send PDEX -->
      <g transform="translate(20, 50)">
        <rect x="0" y="0" width="220" height="32" rx="6" fill="rgba(255,255,255,0.04)" stroke="rgba(255,255,255,0.08)"/>
        <text x="110" y="22" font-family="'Inter', sans-serif" font-size="14" font-weight="600" fill="#FFFFFF" text-anchor="middle">Send PDEX</text>
      </g>

      <!-- Stake more (highlighted - this is the callout target) -->
      <g transform="translate(260, 50)">
        <rect x="-6" y="-6" width="232" height="44" rx="8" fill="rgba(230,0,122,0.15)" stroke="#E6007A" stroke-width="2"/>
        <rect x="0" y="0" width="220" height="32" rx="6" fill="#E6007A"/>
        <text x="110" y="22" font-family="'Inter', sans-serif" font-size="14" font-weight="700" fill="#FFFFFF" text-anchor="middle">Stake more</text>
      </g>

      <!-- Pay out -->
      <g transform="translate(500, 50)">
        <rect x="0" y="0" width="220" height="32" rx="6" fill="rgba(255,255,255,0.04)" stroke="rgba(255,255,255,0.08)"/>
        <text x="110" y="22" font-family="'Inter', sans-serif" font-size="14" font-weight="600" fill="#9CA3AF" text-anchor="middle">Pay out rewards (3)</text>
      </g>

      <!-- Unstake -->
      <g transform="translate(740, 50)">
        <rect x="0" y="0" width="220" height="32" rx="6" fill="rgba(255,255,255,0.04)" stroke="rgba(255,255,255,0.08)"/>
        <text x="110" y="22" font-family="'Inter', sans-serif" font-size="14" font-weight="600" fill="#FFFFFF" text-anchor="middle">Unstake</text>
      </g>
    </g>

    <!-- My Validators teaser -->
    <g transform="translate(0, 410)" opacity="0.65">
      <rect x="0" y="0" width="750" height="220" rx="12" fill="#12121A" stroke="rgba(255,255,255,0.06)"/>
      <text x="20" y="36" font-family="'Inter', sans-serif" font-size="14" font-weight="600" fill="#FFFFFF">My Validators</text>
      <text x="20" y="60" font-family="'Inter', sans-serif" font-size="12" fill="#9CA3AF">3 nominated</text>

      <rect x="790" y="0" width="750" height="220" rx="12" fill="#12121A" stroke="rgba(255,255,255,0.06)"/>
      <text x="810" y="36" font-family="'Inter', sans-serif" font-size="14" font-weight="600" fill="#FFFFFF">Recent staking rewards</text>
    </g>
  </g>

  <!-- Annotation -->
  <g>
    <defs>
      <marker id="arrow3" viewBox="0 0 12 12" refX="6" refY="6" markerWidth="14" markerHeight="14" orient="auto">
        <polygon points="0,0 12,6 0,12" fill="#E6007A"/>
      </marker>
    </defs>
    <path d="M 620 530 Q 580 480 580 425"
          stroke="#E6007A" stroke-width="3" fill="none" marker-end="url(#arrow3)"/>
    <rect x="450" y="540" width="380" height="80" rx="10" fill="rgba(230,0,122,0.12)" stroke="#E6007A" stroke-width="2"/>
    <text x="470" y="574" font-family="'Inter', sans-serif" font-size="13" letter-spacing="3" fill="#E6007A" font-weight="700">PRIMARY ACTION</text>
    <text x="470" y="604" font-family="'Inter', sans-serif" font-size="20" font-weight="700" fill="#FFFFFF">Click Stake more</text>
  </g>

  <!-- Lower-third -->
  <g transform="translate(80, 920)">
    <rect x="0" y="0" width="880" height="110" rx="12" fill="#12121A"/>
    <rect x="0" y="0" width="6" height="110" rx="3" fill="#E6007A"/>
    <circle cx="80" cy="55" r="32" fill="#E6007A"/>
    <text x="80" y="70" font-family="'Inter', sans-serif" font-weight="800" font-size="36" fill="#FFFFFF" text-anchor="middle">2</text>
    <text x="142" y="46" font-family="'Inter', sans-serif" font-weight="700" font-size="16" letter-spacing="4" fill="#00E676">STEP</text>
    <text x="142" y="86" font-family="'Inter', sans-serif" font-weight="700" font-size="34" fill="#FFFFFF">Pick a validator</text>
  </g>

</svg>
