<?xml version="1.0" encoding="UTF-8"?>
<!--
  Shot 5 - Staking Rewards page with Realized APR card spotlight.
  Behind narration: "The Realized APR card shows your actual yield..."
-->
<svg xmlns="http://www.w3.org/2000/svg" viewBox="0 0 1920 1080" width="1920" height="1080">
  <rect width="1920" height="1080" fill="#08080C"/>

  <!-- Sidebar (faded) -->
  <rect x="0" y="0" width="260" height="1080" fill="#12121A" opacity="0.6"/>
  <g opacity="0.4">
    <text x="50" y="60" font-family="'Inter', sans-serif" font-weight="800" font-size="18" fill="#E6007A">POLKADEX</text>
    <rect x="16" y="480" width="228" height="40" rx="6" fill="rgba(230,0,122,0.12)"/>
    <text x="40" y="506" font-family="'Inter', sans-serif" font-size="15" fill="#E6007A" font-weight="700">Staking Rewards</text>
  </g>

  <!-- Topbar -->
  <rect x="260" y="0" width="1660" height="68" fill="#12121A"/>

  <g transform="translate(300, 110)">
    <text x="0" y="0" font-family="'Inter', sans-serif" font-size="13" letter-spacing="3" fill="#9CA3AF">STAKING REWARDS</text>
    <text x="0" y="50" font-family="'Inter', sans-serif" font-size="34" font-weight="800" fill="#FFFFFF">Reward history · Validator 8</text>
    <text x="0" y="80" font-family="'Courier New', monospace" font-size="13" fill="#9CA3AF">e8ab9d4fJpX7nVeMcRtY3qC2…</text>

    <!-- Summary cards row -->
    <g transform="translate(0, 120)">
      <rect x="0" y="0" width="280" height="100" rx="12" fill="#12121A" stroke="rgba(255,255,255,0.06)"/>
      <text x="18" y="32" font-family="'Inter', sans-serif" font-size="12" fill="#9CA3AF">CLAIMED</text>
      <text x="18" y="72" font-family="'Inter', sans-serif" font-size="22" font-weight="800" fill="#FFFFFF">42.7185 PDEX</text>

      <g transform="translate(300, 0)">
        <rect x="0" y="0" width="280" height="100" rx="12" fill="#12121A" stroke="rgba(255,255,255,0.06)"/>
        <text x="18" y="32" font-family="'Inter', sans-serif" font-size="12" fill="#9CA3AF">UNPAID</text>
        <text x="18" y="72" font-family="'Inter', sans-serif" font-size="22" font-weight="800" fill="#FFFFFF">3.2104 PDEX</text>
      </g>

      <g transform="translate(600, 0)">
        <rect x="0" y="0" width="280" height="100" rx="12" fill="#12121A" stroke="rgba(255,255,255,0.06)"/>
        <text x="18" y="32" font-family="'Inter', sans-serif" font-size="12" fill="#9CA3AF">TOTAL</text>
        <text x="18" y="72" font-family="'Inter', sans-serif" font-size="22" font-weight="800" fill="#FFFFFF">45.9289 PDEX</text>
      </g>

      <!-- Realized APR card - spotlight target -->
      <g transform="translate(900, -12)">
        <!-- Outer glow ring for spotlight -->
        <rect x="-12" y="-12" width="664" height="148" rx="18" fill="rgba(230,0,122,0.15)" stroke="#E6007A" stroke-width="3"/>
        <!-- Inner card -->
        <rect x="0" y="0" width="640" height="124" rx="12" fill="#12121A" stroke="rgba(230,0,122,0.4)" stroke-width="1"/>

        <!-- Inner pink stripe -->
        <rect x="0" y="0" width="6" height="124" rx="3" fill="#E6007A"/>

        <text x="22" y="32" font-family="'Inter', sans-serif" font-size="12" letter-spacing="2" fill="#E6007A" font-weight="700">REALIZED APR</text>
        <text x="22" y="84" font-family="'Inter', sans-serif" font-size="48" font-weight="800" fill="#FFFFFF">15.2%</text>
        <text x="180" y="84" font-family="'Inter', sans-serif" font-size="20" fill="#9CA3AF">rolling 30 days</text>
        <text x="22" y="110" font-family="'Inter', sans-serif" font-size="13" fill="#9CA3AF">90d 14.8% · all-time 14.4% · 820 PDEX bonded</text>
      </g>
    </g>

    <!-- Filter pills -->
    <g transform="translate(0, 260)">
      <rect x="0" y="0" width="68" height="32" rx="16" fill="#E6007A"/>
      <text x="34" y="22" font-family="'Inter', sans-serif" font-size="13" font-weight="600" fill="#FFFFFF" text-anchor="middle">All</text>

      <rect x="78" y="0" width="100" height="32" rx="16" fill="rgba(255,255,255,0.04)" stroke="rgba(255,255,255,0.08)"/>
      <text x="128" y="22" font-family="'Inter', sans-serif" font-size="13" fill="#9CA3AF" text-anchor="middle">Claimed</text>

      <rect x="188" y="0" width="100" height="32" rx="16" fill="rgba(255,255,255,0.04)" stroke="rgba(255,255,255,0.08)"/>
      <text x="238" y="22" font-family="'Inter', sans-serif" font-size="13" fill="#9CA3AF" text-anchor="middle">Unpaid</text>

      <!-- Download buttons (right-aligned) -->
      <rect x="1240" y="0" width="80" height="32" rx="6" fill="rgba(255,255,255,0.04)" stroke="rgba(255,255,255,0.08)"/>
      <text x="1280" y="22" font-family="'Inter', sans-serif" font-size="13" fill="#FFFFFF" text-anchor="middle">CSV</text>
      <rect x="1330" y="0" width="80" height="32" rx="6" fill="rgba(255,255,255,0.04)" stroke="rgba(255,255,255,0.08)"/>
      <text x="1370" y="22" font-family="'Inter', sans-serif" font-size="13" fill="#FFFFFF" text-anchor="middle">JSON</text>
      <rect x="1420" y="0" width="120" height="32" rx="6" fill="#00E676"/>
      <text x="1480" y="22" font-family="'Inter', sans-serif" font-size="13" fill="#08080C" font-weight="700" text-anchor="middle">Tax (year…)</text>
    </g>

    <!-- Chart placeholder -->
    <g transform="translate(0, 320)">
      <rect x="0" y="0" width="1540" height="200" rx="12" fill="#12121A" stroke="rgba(255,255,255,0.06)"/>
      <text x="20" y="32" font-family="'Inter', sans-serif" font-size="13" fill="#9CA3AF">Daily rewards by validator</text>
      <!-- Faux bars -->
      <g transform="translate(20, 60)">
        <rect x="0" y="100" width="40" height="40" fill="#E6007A" opacity="0.7"/>
        <rect x="60" y="80" width="40" height="60" fill="#E6007A" opacity="0.7"/>
        <rect x="120" y="60" width="40" height="80" fill="#E6007A" opacity="0.7"/>
        <rect x="180" y="50" width="40" height="90" fill="#E6007A"/>
        <rect x="240" y="70" width="40" height="70" fill="#E6007A" opacity="0.7"/>
        <rect x="300" y="65" width="40" height="75" fill="#E6007A" opacity="0.7"/>
        <rect x="360" y="55" width="40" height="85" fill="#E6007A"/>
        <rect x="420" y="75" width="40" height="65" fill="#E6007A" opacity="0.7"/>
        <rect x="480" y="60" width="40" height="80" fill="#E6007A" opacity="0.7"/>
        <rect x="540" y="50" width="40" height="90" fill="#E6007A"/>
        <rect x="600" y="70" width="40" height="70" fill="#E6007A" opacity="0.7"/>
        <rect x="660" y="45" width="40" height="95" fill="#E6007A"/>
        <rect x="720" y="55" width="40" height="85" fill="#E6007A"/>
        <rect x="780" y="65" width="40" height="75" fill="#E6007A" opacity="0.7"/>
        <rect x="840" y="40" width="40" height="100" fill="#E6007A"/>
        <rect x="900" y="50" width="40" height="90" fill="#E6007A"/>
      </g>
    </g>

    <!-- Reward table teaser -->
    <g transform="translate(0, 540)" opacity="0.5">
      <rect x="0" y="0" width="1540" height="40" rx="6" fill="rgba(255,255,255,0.04)"/>
      <text x="20" y="26" font-family="'Inter', sans-serif" font-size="12" letter-spacing="2" fill="#9CA3AF" font-weight="700">ERA · DATE · AMOUNT · STATUS · VALIDATOR · BLOCK</text>
    </g>
  </g>

  <!-- Spotlight annotation -->
  <g>
    <defs>
      <marker id="arrow5" viewBox="0 0 12 12" refX="6" refY="6" markerWidth="14" markerHeight="14" orient="auto">
        <polygon points="0,0 12,6 0,12" fill="#E6007A"/>
      </marker>
    </defs>
    <path d="M 1640 360 Q 1700 270 1700 220"
          stroke="#E6007A" stroke-width="3" fill="none" marker-end="url(#arrow5)"/>
    <rect x="1620" y="365" width="280" height="100" rx="10" fill="rgba(230,0,122,0.14)" stroke="#E6007A" stroke-width="2"/>
    <text x="1640" y="402" font-family="'Inter', sans-serif" font-size="13" letter-spacing="3" fill="#E6007A" font-weight="700">YOUR ACTUAL YIELD</text>
    <text x="1640" y="432" font-family="'Inter', sans-serif" font-size="18" font-weight="700" fill="#FFFFFF">Not theoretical</text>
    <text x="1640" y="454" font-family="'Inter', sans-serif" font-size="13" fill="#9CA3AF">Rolling 30 / 90 / all-time</text>
  </g>

  <!-- Lower-third -->
  <g transform="translate(80, 920)">
    <rect x="0" y="0" width="880" height="110" rx="12" fill="#12121A"/>
    <rect x="0" y="0" width="6" height="110" rx="3" fill="#E6007A"/>
    <circle cx="80" cy="55" r="32" fill="#E6007A"/>
    <text x="80" y="70" font-family="'Inter', sans-serif" font-weight="800" font-size="36" fill="#FFFFFF" text-anchor="middle">3</text>
    <text x="142" y="46" font-family="'Inter', sans-serif" font-weight="700" font-size="16" letter-spacing="4" fill="#00E676">STEP</text>
    <text x="142" y="86" font-family="'Inter', sans-serif" font-weight="700" font-size="34" fill="#FFFFFF">Watch your rewards</text>
  </g>

</svg>
